<svg id="Layer_1" data-name="Layer 1" xmlns="http://www.w3.org/2000/svg" viewBox="0 0 439.94 123.45"><defs><style>.cls-1{fill:#494848;}</style></defs><title>available_app_store</title><path class="cls-1" d="M50.7,1.57H9a9,9,0,0,0-9,9v92.3a9,9,0,0,0,9,9H50.7a9,9,0,0,0,9-9V10.61A9,9,0,0,0,50.7,1.57ZM29.87,105.32a6,6,0,1,1,6-6A6,6,0,0,1,29.87,105.32Zm22.77-15H7.1V22.25H52.65Z"/><path class="cls-1" d="M93.87,18l-2.53,7.67H88.08L96.37,1.3h3.8l8.32,24.39h-3.36L102.52,18Zm8-2.46-2.42-7c-.51-1.59-.87-3-1.23-4.45h-.11C97.78,5.5,97.38,7,96.91,8.5l-2.39,7.06Z"/><path class="cls-1" d="M111.74,8.17,115.18,18c.58,1.63,1.05,3.08,1.41,4.52h.11c.4-1.45.9-2.89,1.48-4.52l3.4-9.81h3.33L118,25.69h-3L108.35,8.17Z"/><path class="cls-1" d="M139.57,21.49a29.25,29.25,0,0,0,.26,4.19H137l-.29-2.21h-.11a6.46,6.46,0,0,1-5.35,2.6,5,5,0,0,1-5.35-5c0-4.24,3.76-6.55,10.53-6.51v-.36c0-1.45-.4-4.09-4-4a8.43,8.43,0,0,0-4.6,1.3l-.73-2.14a11.37,11.37,0,0,1,5.79-1.52c5.39,0,6.69,3.65,6.69,7.17Zm-3.11-4.74c-3.47-.07-7.41.54-7.41,3.95a2.79,2.79,0,0,0,3,3,4.42,4.42,0,0,0,4.31-2.93,3.3,3.3,0,0,0,.14-1Z"/><path class="cls-1" d="M146,5a2,2,0,0,1-2-2.06,2,2,0,0,1,2.06-2,2,2,0,0,1,2,2A2,2,0,0,1,146,5Zm-1.52,20.73V8.17h3.18V25.69Z"/><path class="cls-1" d="M152.77,0H156V25.69h-3.18Z"/><path class="cls-1" d="M173.39,21.49a29.48,29.48,0,0,0,.25,4.19h-2.86l-.29-2.21h-.11a6.47,6.47,0,0,1-5.36,2.6,5,5,0,0,1-5.35-5c0-4.24,3.76-6.55,10.53-6.51v-.36c0-1.45-.4-4.09-4-4a8.41,8.41,0,0,0-4.59,1.3l-.73-2.14a11.37,11.37,0,0,1,5.79-1.52c5.39,0,6.69,3.65,6.69,7.17Zm-3.11-4.74c-3.47-.07-7.42.54-7.42,3.95a2.79,2.79,0,0,0,3,3,4.42,4.42,0,0,0,4.31-2.93,3.24,3.24,0,0,0,.15-1Z"/><path class="cls-1" d="M178.31,0h3.18V11h.07a6.49,6.49,0,0,1,6-3.18c4.34,0,7.38,3.62,7.38,8.9,0,6.29-4,9.41-7.89,9.41a6.27,6.27,0,0,1-5.86-3.29h-.08l-.18,2.89h-2.75c.11-1.2.14-3,.14-4.52Zm3.18,18.67a5.75,5.75,0,0,0,.11,1.16,4.94,4.94,0,0,0,4.77,3.73c3.37,0,5.32-2.71,5.32-6.73,0-3.54-1.81-6.54-5.21-6.54a5,5,0,0,0-4.81,3.9,5.1,5.1,0,0,0-.18,1.34Z"/><path class="cls-1" d="M198.71,0h3.18V25.69h-3.18Z"/><path class="cls-1" d="M208.8,17.47c.07,4.31,2.78,6.08,6,6.08a12.06,12.06,0,0,0,4.85-.87l.58,2.24A14.24,14.24,0,0,1,214.34,26c-5.35,0-8.61-3.58-8.61-8.83s3.15-9.48,8.25-9.48c5.71,0,7.2,5,7.2,8.25a8.2,8.2,0,0,1-.11,1.52Zm9.3-2.28c0-2-.83-5.18-4.38-5.18-3.25,0-4.63,3-4.88,5.18Z"/><path class="cls-1" d="M239.55,26.08c-4.7,0-8.39-3.47-8.39-9,0-5.86,3.87-9.3,8.68-9.3,5,0,8.43,3.65,8.43,9,0,6.51-4.52,9.34-8.68,9.34Zm.11-2.39c3,0,5.32-2.86,5.32-6.84,0-3-1.48-6.69-5.24-6.69s-5.35,3.47-5.35,6.8c0,3.84,2.17,6.73,5.25,6.73Z"/><path class="cls-1" d="M252.11,12.92c0-1.85,0-3.29-.15-4.74h2.82L255,11H255a6.49,6.49,0,0,1,5.79-3.25c2.42,0,6.19,1.45,6.19,7.45V25.69h-3.19V15.59c0-2.82-1-5.21-4.05-5.21a4.59,4.59,0,0,0-4.27,3.26,4.76,4.76,0,0,0-.22,1.49V25.69h-3.18Z"/><path class="cls-1" d="M283.33,4V8.17h4.55V10.6h-4.55V20c0,2.17.62,3.4,2.38,3.4a5.91,5.91,0,0,0,1.85-.22l.14,2.42a8.65,8.65,0,0,1-2.82.43,4.55,4.55,0,0,1-3.44-1.34c-.87-1-1.23-2.54-1.23-4.6V10.6H277.5V8.17h2.71V5Z"/><path class="cls-1" d="M291.28,0h3.18V10.92h.07a5.65,5.65,0,0,1,2.28-2.24,6.19,6.19,0,0,1,3.26-.91c2.35,0,6.11,1.45,6.11,7.49V25.69H303V15.63c0-2.86-1.05-5.21-4.05-5.21a4.61,4.61,0,0,0-4.27,3.18,3.85,3.85,0,0,0-.22,1.52V25.69h-3.18Z"/><path class="cls-1" d="M313,17.47c.07,4.31,2.79,6.08,6,6.08a12.09,12.09,0,0,0,4.85-.87l.58,2.24A14.27,14.27,0,0,1,318.52,26c-5.35,0-8.61-3.58-8.61-8.83s3.15-9.48,8.25-9.48c5.71,0,7.2,5,7.2,8.25a8.2,8.2,0,0,1-.11,1.52Zm9.3-2.28c0-2-.83-5.18-4.38-5.18-3.25,0-4.63,3-4.88,5.18Z"/><path class="cls-1" d="M338.13,5a2,2,0,0,1-2-2.06,2,2,0,0,1,2.06-2,2,2,0,0,1,2,2A2,2,0,0,1,338.16,5Zm-1.52,20.73V8.17h3.18V25.69Z"/><path class="cls-1" d="M345,1.63a32.71,32.71,0,0,1,6-.51c3.11,0,5.39.72,6.83,2a6.57,6.57,0,0,1,2.17,5.1,7,7,0,0,1-1.92,5.21c-1.66,1.78-4.38,2.68-7.45,2.68a11.08,11.08,0,0,1-2.53-.21v9.77H345Zm3.15,11.72a10.71,10.71,0,0,0,2.61.25c3.83,0,6.11-1.88,6.11-5.17s-2.28-4.81-5.75-4.81a15.62,15.62,0,0,0-3,.25Z"/><path class="cls-1" d="M363.78,0H367V10.92H367a5.67,5.67,0,0,1,2.28-2.24,6.21,6.21,0,0,1,3.26-.91c2.35,0,6.11,1.45,6.11,7.49V25.69H375.5V15.63c0-2.86-1.05-5.21-4.05-5.21a4.62,4.62,0,0,0-4.27,3.18,3.85,3.85,0,0,0-.22,1.52V25.69h-3.19Z"/><path class="cls-1" d="M390.8,26.08c-4.7,0-8.39-3.47-8.39-9,0-5.86,3.87-9.3,8.69-9.3,5,0,8.43,3.65,8.43,9,0,6.51-4.52,9.34-8.68,9.34Zm.11-2.39c3,0,5.32-2.86,5.32-6.84,0-3-1.48-6.69-5.25-6.69s-5.36,3.47-5.36,6.8c0,3.84,2.17,6.73,5.25,6.73Z"/><path class="cls-1" d="M403.36,12.92c0-1.85,0-3.29-.14-4.74H406l.18,2.86h.07a6.49,6.49,0,0,1,5.79-3.25c2.42,0,6.18,1.45,6.18,7.45V25.69h-3.18V15.59c0-2.82-1.05-5.21-4.05-5.21a4.59,4.59,0,0,0-4.27,3.26,4.7,4.7,0,0,0-.22,1.49V25.69h-3.18Z"/><path class="cls-1" d="M425.06,17.47c.07,4.31,2.79,6.08,6,6.08a12.05,12.05,0,0,0,4.85-.87l.58,2.24A14.27,14.27,0,0,1,430.6,26c-5.35,0-8.61-3.58-8.61-8.83s3.15-9.48,8.25-9.48c5.72,0,7.2,5,7.2,8.25a8.23,8.23,0,0,1-.11,1.52Zm9.3-2.28c0-2-.83-5.18-4.38-5.18-3.26,0-4.63,3-4.88,5.18Z"/><path class="cls-1" d="M108.86,42.2,87.41,105.35h9.82L103.64,86h20.77L131,105.35h10.09L119.54,42.2ZM114,52.59c.72,2.82,1.51,5.75,2.51,8.91l5.78,16.74H105.79l5.7-16.85C112.36,58.65,113.18,55.7,114,52.59Z"/><path class="cls-1" d="M168.85,58.57c-6.51,0-11.72,2.51-15.19,7.29l-.38-6.28h-8.74l.05.8c.26,3.91.37,8.22.37,14.4v48.67h9.55V100.74a16.78,16.78,0,0,0,13.06,5.61A19.7,19.7,0,0,0,182,100.2c4.18-4.42,6.39-10.78,6.39-18.38,0-6.71-1.92-12.51-5.55-16.78A18.17,18.17,0,0,0,168.85,58.57Zm-2.38,7.91c8.52,0,12.33,7.89,12.33,15.71,0,10.08-4.86,16.35-12.69,16.35a11.58,11.58,0,0,1-11.25-8.86,12.23,12.23,0,0,1-.34-3.09V78.89a14.27,14.27,0,0,1,.31-2.36c0-.26.1-.52.14-.78A12.1,12.1,0,0,1,166.47,66.48Z"/><path class="cls-1" d="M218,58.57c-6.51,0-11.72,2.51-15.19,7.29l-.38-6.28h-8.74l0,.8c.26,3.92.37,8.22.37,14.4v48.67h9.56V100.74a16.76,16.76,0,0,0,13.05,5.61,19.72,19.72,0,0,0,14.48-6.15c4.18-4.42,6.39-10.78,6.39-18.38,0-6.71-1.92-12.51-5.55-16.78A18.17,18.17,0,0,0,218,58.57Zm-2.38,7.91c8.51,0,12.32,7.89,12.32,15.71,0,10.08-4.87,16.35-12.69,16.35A11.58,11.58,0,0,1,204,89.67a12.25,12.25,0,0,1-.34-3.09V78.89a13.86,13.86,0,0,1,.3-2.37l.14-.77A12.09,12.09,0,0,1,215.66,66.48Z"/><path class="cls-1" d="M279.67,69c-8.92-3.45-11.77-6.17-11.77-11.19,0-4.22,3.36-8.48,10.86-8.48A21.72,21.72,0,0,1,290,52.1l.81.5,2.7-8-.53-.31c-1.6-.94-6.16-3.12-13.91-3.12-12.18,0-20.69,7.19-20.69,17.49,0,8.3,5.33,14.11,16.77,18.26,8.11,3,11.12,6.14,11.12,11.46,0,6-4.65,9.76-12.14,9.76a26.15,26.15,0,0,1-13.77-3.9l-.83-.53-2.56,8.16.47.31c3.61,2.41,10.39,4.15,16.14,4.15,16.42,0,22.24-10,22.24-18.59C295.79,78.93,291.12,73.47,279.67,69Z"/><path class="cls-1" d="M313,48.7l-9.37,2.94v7.94h-6.86v7.64h6.86V90.6c0,5.65,1.08,9.62,3.31,12.12a12.25,12.25,0,0,0,9.24,3.63,22.46,22.46,0,0,0,7.38-1.14l.54-.19-.46-7.65-.92.28a14.42,14.42,0,0,1-4.44.51c-3.7,0-5.28-2.34-5.28-7.84V67.21h11.52V59.58H313Z"/><path class="cls-1" d="M348.18,58.57c-13.37,0-22.7,10-22.7,24.25,0,13.85,9,23.52,22,23.52h.09c10.94,0,22.7-7.62,22.7-24.35,0-6.8-2.1-12.64-6.09-16.9A21.26,21.26,0,0,0,348.18,58.57Zm-.28,7.54c8.6,0,12.51,8.38,12.51,16.17,0,9.58-5.34,16.53-12.69,16.53h-.09c-7.25,0-12.51-6.83-12.51-16.25C335.13,74.37,339.08,66.11,347.91,66.11Z"/><path class="cls-1" d="M399.5,59l-.57-.15a9.19,9.19,0,0,0-2.38-.3,13.63,13.63,0,0,0-12,7.69l-.28-6.69h-8.57l.05.8c.25,3.78.36,8,.36,13.76L376,105.35h9.55V81a25,25,0,0,1,.26-3.7c1.08-5.85,5-9.63,10.05-9.63a24.43,24.43,0,0,1,2.56.16l1,.11Z"/><path class="cls-1" d="M421,58.48c-12.72,0-21.6,10.16-21.6,24.71,0,14,8.84,23.07,22.52,23.07a36.67,36.67,0,0,0,15.13-2.9l.57-.26L435.76,96l-.8.32a29.6,29.6,0,0,1-12,2.14c-4.15,0-13.72-1.37-14.31-13.85l30.84.09.12-.61a21.13,21.13,0,0,0,.29-4C439.94,70.12,435,58.48,421,58.48Zm-.64,7.27a9.42,9.42,0,0,1,7,2.68c2.75,2.8,3.23,6.92,3.29,8.89H408.86C409.75,71.8,413.2,65.75,420.35,65.75Z"/></svg>