<?xml version="1.0" encoding="UTF-8"?>
<svg width="42px" height="67px" viewBox="0 0 42 67" version="1.1" xmlns="http://www.w3.org/2000/svg" xmlns:xlink="http://www.w3.org/1999/xlink">
    <!-- Generator: sketchtool 42 (36781) - http://www.bohemiancoding.com/sketch -->
    <title>435D7300-B2AC-4D66-900B-E409926B0839</title>
    <desc>Created with sketchtool.</desc>
    <defs></defs>
    <g id="Page-1" stroke="none" stroke-width="1" fill="none" fill-rule="evenodd">
        <g id="Магазины" transform="translate(-680.000000, -574.000000)" stroke="#484848">
            <g id="Group-10" transform="translate(659.000000, 381.000000)">
                <g id="noun_654710_cc" transform="translate(42.000000, 227.000000) rotate(-315.000000) translate(-42.000000, -227.000000) translate(13.000000, 198.000000)">
                    <g id="Group">
                        <path d="M19.980702,19.9170684 L21.7464385,21.6802446 L19.980702,19.9170684 Z" id="Shape" stroke-width="2"></path>
                        <path d="M35.8860181,35.7755995 L37.6524749,37.535903 L35.8860181,35.7755995 Z" id="Shape" stroke-width="2"></path>
                        <path d="M19.980702,37.5366212 L21.7478793,35.7763177 L19.980702,37.5366212 Z" id="Shape" stroke-width="2"></path>
                        <path d="M35.8860181,21.6809628 L37.6524749,19.9177866 L35.8860181,21.6809628 Z" id="Shape" stroke-width="2"></path>
                        <path d="M16.3202749,28.7272039 L17.5817211,28.7272039 L16.3202749,28.7272039 Z" id="Shape" stroke-width="2"></path>
                        <path d="M40.0514559,28.7272039 L41.3136225,28.7272039 L40.0514559,28.7272039 Z" id="Shape" stroke-width="2"></path>
                        <path d="M28.8180293,41.1857855 L28.8165885,39.9282207 L28.8180293,41.1857855 Z" id="Shape" stroke-width="2"></path>
                        <path d="M28.8151477,17.5283416 L28.8165885,16.2707769 L28.8151477,17.5283416 Z" id="Shape" stroke-width="2"></path>
                        <path d="M21.319953,28.7279221 L28.8165885,28.7279221 L21.319953,28.7279221 Z" id="Shape" stroke-width="2"></path>
                        <path d="M28.8165885,28.7279221 L32.9395219,32.8403241 L28.8165885,28.7279221 Z" id="Shape" stroke-width="2"></path>
                        <path d="M28.8165885,28.7279221 L28.8165885,22.9141088 L28.8165885,28.7279221 Z" id="Shape" stroke-width="2"></path>
                        <path d="M33.8652548,46.3460385 C31.0830132,49.1218739 26.552325,49.1190011 23.7679222,46.3460385 L11.1448156,33.7617722 C8.36041273,30.9866549 8.36041273,26.4691892 11.1448156,23.6947901 L23.7679222,11.1105239 C26.552325,8.33468839 31.0830132,8.33468839 33.8652548,11.1090875 L46.4898022,23.6926355 C49.2734847,26.468471 49.2734847,30.9866549 46.4898022,33.7617722 L33.8652548,46.3460385 Z" id="Shape" stroke-width="2"></path>
                        <path d="M43.9640282,26.2099197 C45.3537082,27.5953237 45.3537082,29.859084 43.9640282,31.244488 L31.3423625,43.8280361 C29.9526825,45.2141583 27.6819353,45.2141583 26.2929758,43.8280361 L13.6691487,31.244488 C12.2809096,29.8583658 12.2809096,27.5953237 13.6691487,26.2113561 L26.2922553,13.627808 C27.6812149,12.242404 29.9526825,12.242404 31.3416421,13.6263716 L43.9640282,26.2099197 Z" id="Shape" stroke-width="2"></path>
                        <path d="M0,12.1511928 L3.69860913,15.8377034 C7.00747391,19.1371053 9.05345169,23.6940719 9.05345169,28.7272039 L9.05633335,28.7272039 C9.05633335,26.9044172 9.75225396,25.0830669 11.1448156,23.6947901 L23.7679222,11.1105239 C25.1597634,9.72296522 26.9896168,9.02846771 28.8165885,9.02846771 L28.8165885,9.02559491 C23.769363,9.02559491 19.1961704,6.98734884 15.8873056,3.6872288 L12.1894169,0 L0,12.1511928 Z" id="Shape" stroke-width="2"></path>
                        <path d="M57.6338974,45.3024967 L53.9352883,41.6159861 C50.6257031,38.3165842 48.5790049,33.7596176 48.5790049,28.7272039 L48.577564,28.7272039 C48.5761232,30.5507087 47.8802026,32.3734954 46.4905226,33.7596176 L33.8652548,46.3460385 C32.4726932,47.7335971 30.6442806,48.42594 28.8165885,48.42594 L28.8165885,48.4302492 C33.8645344,48.4302492 38.4355657,50.4706499 41.7458713,53.7686153 L45.44376,57.4558441 L57.6338974,45.3024967 Z" id="Shape" stroke-width="2"></path>
                        <rect id="Rectangle-path" stroke-width="1.9999809" transform="translate(12.407467, 37.535611) rotate(-45.016206) translate(-12.407467, -37.535611) " x="10.6219362" y="35.7555741" width="3.57106162" height="3.56007374"></rect>
                        <rect id="Rectangle-path" stroke-width="2.00012237" transform="translate(19.984281, 45.086656) rotate(-45.020256) translate(-19.984281, -45.086656) " x="18.1989839" y="43.306493" width="3.57059376" height="3.56032556"></rect>
                        <rect id="Rectangle-path" stroke-width="2.00012229" transform="translate(41.443439, 16.142058) rotate(-45.012154) translate(-41.443439, -16.142058) " x="39.6581421" y="12.5820912" width="3.57059362" height="7.11993259"></rect>
                    </g>
                </g>
            </g>
        </g>
    </g>
</svg>