<?xml version="1.0" encoding="UTF-8"?>
<svg width="91px" height="76px" viewBox="0 0 91 76" version="1.1" xmlns="http://www.w3.org/2000/svg" xmlns:xlink="http://www.w3.org/1999/xlink">
    <!-- Generator: sketchtool 42 (36781) - http://www.bohemiancoding.com/sketch -->
    <title>E5F09503-5E92-4C34-956D-8D27BA2E3CC5</title>
    <desc>Created with sketchtool.</desc>
    <defs>
        <polygon id="path-1" points="45.1001 75.6766 90.2 75.6766 90.2 -4.0682967e-05 0.0002 -4.0682967e-05 0.0002 75.6766"></polygon>
    </defs>
    <g id="Page-1" stroke="none" stroke-width="1" fill="none" fill-rule="evenodd">
        <g id="Войти" transform="translate(-230.000000, -258.000000)">
            <g id="Icon" transform="translate(230.000000, 258.000000)">
                <mask id="mask-2" fill="white">
                    <use xlink:href="#path-1"></use>
                </mask>
                <g id="Clip-2"></g>
                <path d="M85.5002,67.6766 C85.5002,68.9766 84.5002,69.9766 83.2002,69.9766 C81.8992,69.9766 80.8992,68.9766 80.8992,67.6766 C80.8992,66.3766 81.8992,65.3766 83.2002,65.3766 C84.5002,65.3766 85.5002,66.4766 85.5002,67.6766 M90.2002,47.2766 C90.2002,48.5766 89.2002,49.5766 87.8992,49.5766 C86.6002,49.5766 85.6002,48.5766 85.6002,47.2766 C85.6002,45.9766 86.6002,44.9766 87.8992,44.9766 C89.2002,44.9766 90.2002,45.9766 90.2002,47.2766 M77.8992,50.5766 C77.8992,51.8766 76.8992,52.8766 75.6002,52.8766 C74.3002,52.8766 73.3002,51.8766 73.3002,50.5766 C73.3002,49.2766 74.3002,48.2766 75.6002,48.2766 C76.8992,48.2766 77.8992,49.2766 77.8992,50.5766 M5.5002,58.5766 C5.5002,59.8766 4.5002,60.8766 3.2002,60.8766 C1.9002,60.8766 0.9002,59.8766 0.9002,58.5766 C0.9002,57.2766 1.9002,56.2766 3.2002,56.2766 C4.5002,56.2766 5.5002,57.3766 5.5002,58.5766 M2.3002,42.6766 C1.0002,42.6766 0.0002,41.6766 0.0002,40.3766 C0.1002,39.1766 1.1002,38.1766 2.3002,38.1766 C3.6002,38.1766 4.6002,39.1766 4.6002,40.4766 C4.6002,41.6766 3.6002,42.6766 2.3002,42.6766 M70.7002,63.1766 C70.7002,64.4766 69.7002,65.4766 68.3992,65.4766 C67.1002,65.4766 66.1002,64.4766 66.1002,63.1766 C66.1002,61.8766 67.1002,60.8766 68.3992,60.8766 C69.7002,60.8766 70.7002,61.8766 70.7002,63.1766 M34.6002,51.0766 C34.6002,52.3766 33.6002,53.3766 32.3002,53.3766 C31.0002,53.3766 30.0002,52.3766 30.0002,51.0766 C30.0002,49.7766 31.0002,48.7766 32.3002,48.7766 C33.6002,48.7766 34.6002,49.7766 34.6002,51.0766 M22.5002,42.8766 C22.5002,44.1766 21.5002,45.1766 20.2002,45.1766 C18.9002,45.1766 17.9002,44.1766 17.9002,42.8766 C17.9002,41.5766 18.9002,40.5766 20.2002,40.5766 C21.5002,40.5766 22.5002,41.5766 22.5002,42.8766 M29.6002,10.3766 C29.6002,9.0766 30.6002,8.0766 31.9002,8.0766 C33.2002,8.0766 34.2002,9.0766 34.2002,10.3766 C34.2002,11.6766 33.2002,12.6766 31.9002,12.6766 C30.6002,12.6766 29.6002,11.5766 29.6002,10.3766 M72.3992,5.6766 C72.3992,4.3766 73.3992,3.3766 74.7002,3.3766 C76.0002,3.3766 77.0002,4.3766 77.0002,5.6766 C77.0002,6.9766 76.0002,7.9766 74.7002,7.9766 C73.3992,7.9766 72.3992,6.8766 72.3992,5.6766 M56.0002,16.8766 C57.3002,16.8766 58.3002,17.8766 58.3002,19.1766 C58.3002,20.4766 57.3002,21.4766 56.0002,21.4766 C54.7002,21.4766 53.7002,20.4766 53.7002,19.1766 C53.7002,17.8766 54.8002,16.8766 56.0002,16.8766 M49.8992,6.9766 C49.8992,5.6766 50.8992,4.6766 52.2002,4.6766 C53.5002,4.6766 54.5002,5.6766 54.5002,6.9766 C54.5002,8.2766 53.5002,9.2766 52.2002,9.2766 C50.8992,9.2766 49.8992,8.2766 49.8992,6.9766 M22.1002,22.2766 C19.0002,22.8766 15.4002,23.5766 14.0002,20.9766 C13.5002,19.9766 13.6002,19.2766 13.8002,18.7766 C14.4002,17.1766 16.7002,16.3766 18.8002,15.6766 C19.9002,15.2766 21.9002,14.6766 22.0002,14.1766 C21.9002,12.9766 19.7002,11.6766 17.7002,10.5766 C16.6002,9.8766 15.4002,9.1766 14.5002,8.4766 C13.3002,7.4766 13.1002,6.3766 13.3002,5.5766 C13.7002,2.6766 18.1002,0.6766 19.5002,0.0766 C20.0002,-0.1234 20.6002,0.0766 20.8002,0.5766 C21.0002,1.0766 20.8002,1.6766 20.3002,1.8766 C17.5002,3.0766 15.5002,4.6766 15.3002,5.7766 C15.3002,5.8766 15.2002,6.2766 15.8002,6.7766 C16.6002,7.3766 17.7002,8.0766 18.8002,8.6766 C21.3002,10.1766 23.9002,11.6766 24.1002,13.9766 C24.2002,15.8766 21.9002,16.6766 19.5002,17.4766 C18.1002,17.9766 16.0002,18.6766 15.7002,19.3766 C15.7002,19.4766 15.6002,19.5766 15.8002,19.8766 C16.5002,21.1766 19.1002,20.6766 21.7002,20.1766 C24.5002,19.6766 27.4002,19.0766 28.9002,20.7766 C30.8002,23.0766 28.7002,26.3766 26.9002,28.9766 C26.1002,30.0766 25.3002,31.3766 25.2002,32.0766 C25.1002,32.5766 24.7002,32.9766 24.2002,32.9766 L24.1002,32.9766 C23.5002,32.8766 23.2002,32.3766 23.2002,31.8766 C23.3002,30.7766 24.2002,29.4766 25.3002,27.8766 C26.7002,25.8766 28.4002,23.2766 27.4002,22.1766 C26.6002,21.3766 24.2002,21.8766 22.1002,22.2766 M67.2002,27.8766 C66.6002,25.0766 65.6002,20.8766 69.3002,18.6766 C72.1002,16.9766 74.1002,19.7766 75.6002,21.7766 C76.5002,22.9766 77.3992,24.2766 78.2002,24.3766 C78.3002,24.3766 78.6002,24.3766 79.0002,24.0766 C80.3992,22.8766 79.6002,21.3766 78.2002,18.8766 C77.1002,17.0766 76.0002,15.1766 77.0002,13.5766 C78.3002,11.6766 80.3002,12.8766 81.5002,13.6766 C83.2002,14.7766 84.5002,15.3766 85.8002,14.3766 C86.7002,13.6766 87.2002,12.8766 87.3002,11.6766 C87.6002,9.2766 86.3002,6.3766 85.0002,4.6766 C84.7002,4.2766 84.7002,3.5766 85.2002,3.2766 C85.6002,2.9766 86.3002,2.9766 86.6002,3.4766 C88.2002,5.5766 89.7002,9.0766 89.3002,11.9766 C89.1002,13.6766 88.3002,14.9766 87.0002,15.9766 C84.5002,17.8766 82.0002,16.3766 80.3992,15.3766 C78.8992,14.4766 78.7002,14.4766 78.6002,14.6766 C78.3002,15.1766 79.1002,16.5766 79.8002,17.7766 C81.2002,20.0766 83.1002,23.1766 80.2002,25.5766 C79.3992,26.1766 78.7002,26.4766 77.8002,26.3766 C76.2002,26.1766 75.0002,24.5766 73.8002,22.9766 C72.0002,20.4766 71.2002,19.7766 70.1002,20.3766 C67.8992,21.6766 68.2002,24.1766 69.0002,27.3766 C69.2002,28.3766 69.3992,29.2766 69.3992,29.9766 C69.3992,30.5766 68.8992,30.9766 68.3992,30.9766 C67.8992,30.9766 67.3992,30.4766 67.3992,29.9766 C67.6002,29.5766 67.3992,28.7766 67.2002,27.8766 M31.1002,70.1766 C22.1002,73.8766 20.2002,73.7766 19.8002,73.5766 L19.7002,73.4766 C19.2002,72.1766 21.8002,65.3766 22.9002,62.4766 L23.1002,62.0766 C24.3002,58.7766 32.0002,38.7766 35.2002,30.1766 C36.5002,34.0766 40.0002,39.0766 44.1002,43.5766 C44.8002,44.3766 45.5002,45.0766 46.2002,45.7766 C51.8002,51.3766 57.6002,55.3766 61.8992,56.7766 C54.3002,60.1766 34.2002,68.9766 31.1002,70.1766 M38.3002,25.3766 C39.8002,25.3766 42.3002,26.2766 45.3002,28.1766 C45.2002,31.4766 44.8002,35.5766 44.2002,40.5766 C37.8002,33.1766 35.6002,27.2766 37.0002,25.7766 C37.3002,25.5766 37.7002,25.3766 38.3002,25.3766 M55.6002,36.4766 C57.3992,38.2766 58.8992,39.9766 60.3992,41.7766 C55.1002,43.8766 51.7002,46.1766 50.7002,47.0766 C49.7002,46.1766 48.8002,45.2766 47.8002,44.3766 C47.2002,43.7766 46.7002,43.1766 46.1002,42.5766 C46.7002,38.3766 47.1002,33.8766 47.3992,29.4766 C49.8002,31.1766 52.6002,33.4766 55.6002,36.4766 M64.8002,48.3766 C66.8002,52.1766 66.8002,54.2766 66.2002,54.9766 C65.8992,55.2766 65.5002,55.3766 64.8992,55.3766 C62.1002,55.3766 57.2002,52.6766 52.2002,48.3766 C53.5002,47.3766 56.8002,45.2766 61.7002,43.4766 C62.8992,45.1766 64.0002,46.8766 64.8002,48.3766 M67.6002,56.3766 C69.2002,54.7766 68.8992,51.6766 66.6002,47.3766 C65.8002,45.8766 64.8002,44.3766 63.6002,42.7766 C69.1002,40.9766 76.3992,39.6766 84.8992,40.7766 C85.5002,40.8766 86.0002,40.4766 86.0002,39.8766 C86.1002,39.2766 85.7002,38.7766 85.1002,38.7766 C75.8002,37.6766 68.1002,39.0766 62.3002,41.0766 C60.7002,39.0766 58.8992,37.0766 57.0002,35.0766 C53.8002,31.8766 50.5002,29.1766 47.3992,27.1766 C47.6002,21.2766 47.2002,16.0766 45.7002,13.5766 C44.1002,10.8766 42.2002,10.4766 40.9002,10.6766 C38.0002,11.1766 35.7002,14.7766 34.9002,18.0766 C34.8002,18.5766 35.1002,19.1766 35.7002,19.2766 C36.2002,19.3766 36.8002,19.0766 36.9002,18.4766 C37.6002,15.4766 39.5002,12.8766 41.2002,12.5766 C42.2002,12.4766 43.1002,13.0766 44.0002,14.4766 C44.7002,15.6766 45.6002,18.6766 45.5002,25.8766 C42.7002,24.2766 40.3002,23.3766 38.4002,23.3766 C37.2002,23.3766 36.3002,23.6766 35.7002,24.3766 C35.4002,24.6766 35.2002,25.0766 35.0002,25.4766 L34.9002,25.4766 C34.9002,25.4766 22.8002,57.1766 21.2002,61.3766 L21.0002,61.7766 C17.9002,69.8766 16.8002,73.6766 18.4002,75.0766 C18.4002,75.0766 18.5002,75.0766 18.5002,75.1766 C18.9002,75.4766 19.5002,75.6766 20.3002,75.6766 C22.3002,75.6766 25.9002,74.5766 31.9002,72.0766 C35.7002,70.4766 65.5002,57.4766 65.8002,57.3766 L65.8992,57.2766 C66.6002,57.0766 67.2002,56.8766 67.6002,56.3766" id="Fill-1" fill="#FFFFFF" mask="url(#mask-2)"></path>
            </g>
        </g>
    </g>
</svg>