<?xml version="1.0" encoding="UTF-8"?>
<svg width="202px" height="23px" viewBox="0 0 202 23" version="1.1" xmlns="http://www.w3.org/2000/svg" xmlns:xlink="http://www.w3.org/1999/xlink">
    <!-- Generator: Sketch 41.2 (35397) - http://www.bohemiancoding.com/sketch -->
    <title>Logo Bestwatch</title>
    <desc>Created with Sketch.</desc>
    <defs></defs>
    <g id="Page-1" stroke="none" stroke-width="1" fill="none" fill-rule="evenodd">
        <g id="Главная-1920" transform="translate(-710.000000, -95.000000)" fill="#FF2634">
            <g id="Group-21" transform="translate(710.000000, 95.000000)">
                <path d="M0.15,1 L0.15,22 L8.4,22 C14.31,22 16.17,19.3 16.17,15.97 C16.17,13.48 14.79,11.56 12.6,11.05 C14.22,10.39 15.36,8.92 15.36,6.58 C15.36,4.51 14.34,1 8.25,1 L0.15,1 Z M4.29,4.9 L8.7,4.9 C11.04,4.9 11.46,6.19 11.46,7.15 C11.46,8.14 10.92,9.4 8.7,9.4 L4.29,9.4 L4.29,4.9 Z M4.29,12.97 L9.27,12.97 C11.43,12.97 12.27,14.2 12.27,15.52 C12.27,16.87 11.52,18.07 9.27,18.07 L4.29,18.07 L4.29,12.97 Z M27.05,9.49 L27.05,4.9 L36.89,4.9 L36.89,1 L22.91,1 L22.91,22 L36.89,22 L36.89,18.1 L27.05,18.1 L27.05,13.39 L36.14,13.39 L36.14,9.49 L27.05,9.49 Z M50.32,0.79 C45.97,0.85 42.55,3.25 42.55,7.18 C42.55,10.87 45.64,12.46 49.66,12.94 L51.31,13.12 C53.47,13.39 55.18,13.9 55.18,15.73 C55.18,17.32 53.59,18.28 51.16,18.31 L50.98,18.31 C47.86,18.31 45.7,16.81 44.77,15.49 L42.07,17.98 C43.72,20.23 46.78,22.21 50.98,22.21 L51.16,22.21 C55.81,22.18 59.32,19.72 59.32,15.73 C59.32,11.38 56.14,9.79 51.88,9.28 L50.2,9.1 C48.31,8.86 46.69,8.44 46.69,7.03 C46.69,5.2 48.94,4.69 50.32,4.69 L50.56,4.69 C52.09,4.69 54.4,5.5 55.96,6.76 L58.66,4.27 C56.5,2.23 53.53,0.79 50.56,0.79 L50.32,0.79 Z M74.07,4.9 L79.83,4.9 L79.83,1 L64.17,1 L64.17,4.9 L69.93,4.9 L69.93,22 L74.07,22 L74.07,4.9 Z M108.02,22 L116.48,1 L111.89,1 L106.82,14.38 L101.66,1 L99.23,1 L94.07,14.38 L89,1 L84.41,1 L92.9,22 L95.33,22 L100.46,9.37 L105.56,22 L108.02,22 Z M123.94,18.16 L131.35,18.16 L132.85,22 L137.44,22 L128.92,1 L126.49,1 L117.85,22 L122.44,22 L123.94,18.16 Z M127.66,8.5 L129.91,14.23 L125.38,14.23 L127.66,8.5 Z M149.52,4.9 L155.28,4.9 L155.28,1 L139.62,1 L139.62,4.9 L145.38,4.9 L145.38,22 L149.52,22 L149.52,4.9 Z M170.75,0.79 C164.84,0.79 160.07,5.59 160.07,11.5 C160.07,17.41 164.84,22.21 170.75,22.21 C173.87,22.21 176.69,20.86 178.67,18.73 L175.97,16.24 C174.62,17.59 172.79,18.31 170.75,18.31 C167.09,18.31 164.21,15.55 164.21,11.5 C164.21,7.48 167.09,4.69 170.75,4.69 C172.79,4.69 174.62,5.44 175.97,6.76 L178.67,4.27 C176.69,2.14 173.87,0.79 170.75,0.79 Z M201.82,22 L201.82,1 L197.68,1 L197.68,9.49 L189.55,9.49 L189.55,1 L185.41,1 L185.41,22 L189.55,22 L189.55,13.39 L197.68,13.39 L197.68,22 L201.82,22 Z" id="Logo-Bestwatch"></path>
            </g>
        </g>
    </g>
</svg>