<?xml version="1.0" encoding="UTF-8"?>
<svg width="57px" height="53px" viewBox="0 0 57 53" version="1.1" xmlns="http://www.w3.org/2000/svg" xmlns:xlink="http://www.w3.org/1999/xlink">
    <!-- Generator: sketchtool 42 (36781) - http://www.bohemiancoding.com/sketch -->
    <title>2EC7BC7A-FAAB-4ECA-9ABC-45F8C10A98E8</title>
    <desc>Created with sketchtool.</desc>
    <defs></defs>
    <g id="Page-1" stroke="none" stroke-width="1" fill="none" fill-rule="evenodd">
        <g id="Магазины" transform="translate(-958.000000, -582.000000)" fill="#484848">
            <g id="Group-10" transform="translate(659.000000, 381.000000)">
                <path d="M311.054641,201.000942 C311.016631,201.0047 310.978888,201.010788 310.941624,201.019171 C308.534176,201.122319 306.600515,203.056822 306.493845,205.463304 C306.478798,205.531536 306.471461,205.601241 306.47197,205.67111 L306.47197,238.333121 L300.081022,238.333121 C299.809536,238.291448 299.533476,238.371466 299.326358,238.551865 C299.307382,238.56933 299.289138,238.587573 299.271672,238.606549 C299.237144,238.641662 299.205449,238.679453 299.176884,238.719567 C299.169403,238.729145 299.16211,238.738869 299.155009,238.748732 C299.152536,238.753572 299.150106,238.758434 299.147718,238.763316 C299.130697,238.788058 299.114881,238.813608 299.100323,238.839875 C299.100321,238.841091 299.100321,238.842307 299.100323,238.843522 C299.099105,238.844734 299.097889,238.845949 299.096678,238.847168 C299.072581,238.897572 299.053059,238.950038 299.038346,239.003933 C299.037092,239.008785 299.035876,239.013646 299.0347,239.018517 C299.002456,239.133446 298.992555,239.253493 299.005535,239.372152 L299.005535,243.003288 C299.005535,245.51851 301.020013,247.566281 303.515291,247.651583 C303.545474,247.656721 303.575892,247.660371 303.606434,247.66252 C303.628867,247.662841 303.649551,247.669811 303.672057,247.669811 C303.684546,247.669811 303.696048,247.666264 303.708514,247.666165 L328.867632,247.666165 L328.867632,252.689968 C328.867849,253.024054 329.046607,253.332549 329.33635,253.498869 C329.626094,253.66519 329.982635,253.663971 330.271234,253.495673 L333.647172,251.519692 L336.771554,253.481089 C337.059443,253.663396 337.423801,253.674333 337.722106,253.50962 C338.020411,253.344907 338.20525,253.030724 338.204322,252.689968 L338.204322,247.669811 L342.870845,247.669811 C345.371173,247.669811 347.407328,245.678335 347.515492,243.203803 C347.53027,243.136761 347.537606,243.068294 347.537367,242.999643 L347.537367,228.070417 L347.537367,210.333987 L353.928315,210.333987 C354.196328,210.375424 354.469112,210.298246 354.675688,210.122535 C354.678132,210.120118 354.680562,210.117687 354.682979,210.115243 C354.704514,210.096752 354.725195,210.077288 354.744956,210.056912 C354.744959,210.055697 354.744959,210.054481 354.744956,210.053266 C354.746171,210.053269 354.747387,210.053269 354.748602,210.053266 C354.74982,210.052054 354.751035,210.050839 354.752247,210.04962 C354.95855,209.83729 355.051892,209.53968 355.003803,209.247562 L355.003803,205.667464 C355.003803,203.169702 353.016286,201.134723 350.545086,201.022816 C350.476855,201.00777 350.407149,201.000433 350.33728,201.000942 L350.242492,201.000942 L311.14943,201.000942 C311.145784,201.000921 311.142138,201.000921 311.138493,201.000942 C311.110556,200.999686 311.082577,200.999686 311.054641,201.000942 Z M311.138493,202.867551 C311.142138,202.867572 311.145784,202.867572 311.14943,202.867551 C312.711397,202.873404 313.938406,204.103992 313.938406,205.667464 L313.938406,209.320476 C313.932572,209.397195 313.936245,209.47434 313.949343,209.550157 C313.950365,209.561115 313.95158,209.572053 313.952989,209.582968 C313.954165,209.587839 313.95538,209.5927 313.956635,209.597551 C314.055778,210.07947 314.511978,210.401682 314.999311,210.333987 L345.670758,210.333987 L345.670758,228.001149 C345.669901,228.02423 345.669901,228.047336 345.670758,228.070417 L345.670758,242.999643 L345.670758,243.003288 C345.670758,244.570493 344.438139,245.803202 342.870845,245.803202 L338.204322,245.803202 L338.204322,241.453857 C338.420974,241.453971 338.692108,241.454942 338.984507,241.472087 C339.302852,241.472087 339.62999,241.490753 339.932393,241.472087 C340.083589,241.472087 340.225878,241.449133 340.388109,241.417401 C340.550336,241.383802 340.752109,241.392235 341.051631,241.089284 C341.351412,240.786149 341.3415,240.584701 341.372452,240.422119 C341.403403,240.259724 341.413874,240.117785 341.419847,239.966403 C341.431794,239.663826 341.420484,239.340233 341.408911,239.022163 C341.397338,238.703906 341.386719,238.391376 341.387036,238.169063 C341.38706,238.150396 341.386833,238.149405 341.387036,238.132606 C341.400102,238.132606 341.40224,238.114376 341.416202,238.114376 C341.607346,238.000515 341.880349,237.85108 342.15993,237.698765 C342.439507,237.545703 342.726044,237.392915 342.980217,237.228467 C343.107295,237.146336 343.227979,237.064422 343.352079,236.955039 C343.476171,236.844909 343.648787,236.751246 343.756754,236.338912 C343.864607,235.926765 343.756461,235.75871 343.702068,235.602475 C343.647582,235.44568 343.586596,235.313408 343.516137,235.179573 C343.375208,234.911341 343.20396,234.636488 343.034903,234.366577 C342.865844,234.096852 342.697386,233.833899 342.586478,233.641078 C342.578825,233.622412 342.579176,233.623112 342.571896,233.611912 C342.579549,233.593246 342.578078,233.590388 342.586478,233.575456 C342.695189,233.381328 342.861639,233.11809 343.02761,232.846311 C343.193589,232.574533 343.360042,232.299022 343.497908,232.02967 C343.566841,231.895274 343.627501,231.759915 343.680195,231.60312 C343.732908,231.446325 343.836593,231.277712 343.723943,230.866685 C343.611293,230.455658 343.437303,230.362467 343.311977,230.254204 C343.186652,230.145941 343.068123,230.068891 342.940113,229.988066 C342.684094,229.825672 342.397474,229.670743 342.11618,229.521414 C341.834888,229.372086 341.557594,229.228176 341.365161,229.116739 C341.350975,229.116739 341.349248,229.09851 341.335996,229.09851 C341.335602,229.079844 341.336218,229.078852 341.335996,229.062053 C341.333196,228.83974 341.338907,228.527398 341.346934,228.208955 C341.354774,227.890698 341.362399,227.567105 341.346934,227.264712 C341.339281,227.113519 341.328727,226.971206 341.295893,226.808998 C341.263097,226.646603 341.267045,226.448713 340.964132,226.149122 C340.660981,225.849718 340.463106,225.855639 340.300612,225.824653 C340.138124,225.792921 339.996132,225.78286 339.844896,225.77726 C339.542421,225.758594 339.215222,225.778128 338.89701,225.795487 C338.578796,225.814153 338.270163,225.817362 338.047555,225.817362 C338.02876,225.817362 338.024906,225.821381 338.007453,225.821008 C337.998867,225.802342 337.998111,225.799484 337.989224,225.784551 C337.875547,225.593597 337.729571,225.320441 337.577257,225.040823 C337.424942,224.761018 337.267876,224.474582 337.103314,224.220536 C337.021034,224.093607 336.939572,223.97626 336.829886,223.852319 C336.720204,223.729121 336.623702,223.554974 336.210114,223.447644 C335.797769,223.339381 335.629976,223.450151 335.473677,223.498683 C335.317386,223.552815 335.188403,223.613871 335.05442,223.684616 C334.786455,223.824612 334.511207,223.996735 334.241424,224.16585 C333.971639,224.335711 333.712334,224.503398 333.519571,224.614275 C333.504451,224.614275 333.497394,224.632502 333.483114,224.632502 C333.468741,224.632502 333.46559,224.614275 333.450303,224.614275 C333.256306,224.506012 332.996452,224.346189 332.724804,224.180434 C332.453158,224.014306 332.170248,223.840786 331.900872,223.702843 C331.766177,223.633779 331.63823,223.572823 331.481613,223.520558 C331.325004,223.468293 331.155869,223.370326 330.745178,223.480456 C330.334107,223.592452 330.237178,223.76334 330.129051,223.888776 C330.020918,224.013839 329.940076,224.132589 329.859268,224.26064 C329.697657,224.516737 329.545389,224.80692 329.396261,225.088218 C329.247138,225.369329 329.106765,225.643144 328.995232,225.835591 C328.986459,225.854256 328.985402,225.85347 328.977004,225.868403 C328.959458,225.868963 328.955678,225.868029 328.9369,225.868403 C328.714311,225.868403 328.405783,225.86884 328.087448,225.850173 C327.769114,225.850173 327.441918,225.833374 327.139559,225.850173 C326.988384,225.850173 326.846028,225.873127 326.683845,225.904859 C326.521656,225.936592 326.323592,225.933482 326.023969,226.236619 C325.724483,226.53957 325.730445,226.737559 325.6995,226.900141 C325.668552,227.062536 325.658078,227.204661 325.652107,227.355857 C325.640161,227.658434 325.651471,227.981841 325.663044,228.300098 C325.674617,228.618354 325.685254,228.930696 325.684918,229.153196 C325.684892,229.171862 325.685129,229.172853 325.684918,229.189653 C325.671852,229.189653 325.669715,229.207882 325.655753,229.207882 C325.464603,229.321745 325.191605,229.467719 324.912025,229.619848 C324.632446,229.77291 324.345903,229.929345 324.091738,230.093793 C323.964659,230.175924 323.843962,230.257838 323.719874,230.367221 C323.595782,230.477351 323.423163,230.571014 323.315199,230.983348 C323.207215,231.395682 323.315492,231.563548 323.369885,231.719783 C323.424371,231.876578 323.485357,232.008665 323.555818,232.142688 C323.696747,232.410546 323.867999,232.685959 324.037052,232.955683 C324.206111,233.225595 324.374566,233.488361 324.485477,233.68118 C324.493876,233.699846 324.492219,233.699061 324.500058,233.713993 C324.493152,233.732659 324.49313,233.735605 324.485477,233.746805 C324.376765,233.940932 324.210318,234.20417 324.044343,234.475949 C323.878364,234.74754 323.711916,235.022865 323.574045,235.29259 C323.505111,235.426986 323.444454,235.562343 323.391759,235.719138 C323.339046,235.875933 323.235493,236.044735 323.34801,236.455575 C323.46066,236.866603 323.634643,236.95998 323.759978,237.068056 C323.885302,237.17632 324.00383,237.253369 324.13184,237.334194 C324.387864,237.494722 324.678126,237.651704 324.95942,237.800846 C325.240712,237.950175 325.514364,238.094085 325.706791,238.205521 C325.720978,238.205521 325.722723,238.223749 325.735957,238.223749 C325.736343,238.242415 325.735739,238.243406 325.735957,238.260207 C325.738757,238.482518 325.733047,238.794862 325.725021,239.113305 C325.717181,239.431562 325.709556,239.754969 325.725021,240.057546 C325.732674,240.208742 325.743227,240.351054 325.776061,240.513262 C325.808857,240.675657 325.804607,240.873546 326.107821,241.173136 C326.109036,241.173139 326.110251,241.173139 326.111467,241.173136 C326.414822,241.472727 326.608787,241.466808 326.771343,241.497605 C326.933906,241.529339 327.075828,241.541179 327.227058,241.548646 C327.529518,241.567312 327.860498,241.547778 328.17859,241.530418 C328.437739,241.515211 328.662942,241.510444 328.867632,241.508543 L328.867632,245.799556 L307.379755,245.799556 C307.933964,245.068023 308.27412,244.178033 308.316705,243.203803 C308.331482,243.136761 308.338818,243.068294 308.338579,242.999643 L308.338579,239.342986 C308.342011,239.29687 308.342011,239.250564 308.338579,239.204448 L308.338579,205.67111 L308.338579,205.667464 C308.338579,204.10026 309.571197,202.867551 311.138493,202.867551 Z M314.84619,202.867551 L350.33728,202.867551 C351.904575,202.867551 353.137194,204.10026 353.137194,205.667464 L353.137194,208.467378 L346.749891,208.467378 C346.696835,208.459125 346.643165,208.455466 346.589479,208.456441 C346.541875,208.456455 346.494342,208.460112 346.447295,208.467378 L315.805015,208.467378 L315.805015,205.667464 C315.805015,204.614336 315.439124,203.650197 314.84619,202.867551 Z M311.977008,214.067205 C311.461558,214.09338 311.064923,214.532454 311.091098,215.047903 C311.117273,215.563353 311.556347,215.959989 312.071797,215.933813 L341.93754,215.933813 C342.274123,215.938574 342.587196,215.761735 342.756877,215.471013 C342.926557,215.180291 342.926557,214.820727 342.756877,214.530005 C342.587196,214.239283 342.274123,214.062444 341.93754,214.067205 L312.071797,214.067205 C312.040221,214.065599 312.008584,214.065599 311.977008,214.067205 L311.977008,214.067205 Z M311.977008,219.667031 C311.461558,219.693207 311.064923,220.13228 311.091098,220.64773 C311.117273,221.16318 311.556347,221.559815 312.071797,221.53364 L341.93754,221.53364 C342.274123,221.5384 342.587196,221.361562 342.756877,221.07084 C342.926557,220.780118 342.926557,220.420554 342.756877,220.129832 C342.587196,219.83911 342.274123,219.662271 341.93754,219.667031 L312.071797,219.667031 C312.040221,219.665426 312.008584,219.665426 311.977008,219.667031 Z M311.977008,225.266858 C311.461558,225.293033 311.064923,225.732107 311.091098,226.247557 C311.117273,226.763007 311.556347,227.159642 312.071797,227.133467 L323.271451,227.133467 C323.608034,227.138227 323.921107,226.961389 324.090787,226.670667 C324.260468,226.379945 324.260468,226.020381 324.090787,225.729658 C323.921107,225.438936 323.608034,225.262098 323.271451,225.266858 L312.071797,225.266858 C312.040221,225.265253 312.008584,225.265253 311.977008,225.266858 Z M335.681483,225.485602 C335.765163,225.629329 335.841546,225.759497 335.936684,225.934025 C336.084612,226.205803 336.236323,226.489418 336.385108,226.739728 C336.459493,226.864793 336.532451,226.984179 336.618435,227.100656 C336.704411,227.216386 336.755065,227.334251 337.048628,227.501686 C337.049843,227.501688 337.051059,227.501688 337.052274,227.501686 C337.345568,227.667814 337.473649,227.647163 337.617362,227.662096 C337.761072,227.680762 337.89845,227.682104 338.04391,227.683971 C338.334821,227.684344 338.657274,227.664138 338.966278,227.654805 L339.480325,227.654805 C339.481271,227.820934 339.485189,227.976603 339.480325,228.176144 C339.472672,228.485441 339.465653,228.803673 339.469387,229.094864 C339.471253,229.24046 339.471264,229.377499 339.487616,229.521414 C339.503855,229.665143 339.48834,229.794936 339.658965,230.0865 C339.829573,230.378251 339.95355,230.432138 340.070931,230.516696 C340.188322,230.600693 340.302258,230.669186 340.428211,230.742731 C340.680118,230.888326 340.967969,231.035368 341.241207,231.180217 C341.417154,231.273548 341.549071,231.352914 341.693278,231.435418 C341.611182,231.579145 341.534394,231.714166 341.430784,231.883841 C341.269567,232.147593 341.102793,232.421104 340.960486,232.674962 C340.889331,232.801892 340.825088,232.921588 340.767264,233.054117 C340.709455,233.186646 340.630449,233.292285 340.632372,233.630142 C340.634238,233.968184 340.711589,234.074197 340.77091,234.206164 C340.83023,234.338693 340.898834,234.455491 340.971424,234.581673 C341.116609,234.834039 341.288453,235.107077 341.452659,235.369149 C341.558607,235.539011 341.634883,235.670386 341.718796,235.813928 C341.575534,235.897926 341.445244,235.977764 341.270373,236.072773 C340.9988,236.220235 340.71126,236.372429 340.461023,236.521198 C340.335904,236.595862 340.223808,236.665761 340.107388,236.750878 C339.990968,236.836742 339.866353,236.88727 339.699067,237.181072 C339.531763,237.474691 339.549645,237.609535 339.535011,237.753451 C339.520451,237.89718 339.520801,238.034405 339.520427,238.180001 C339.519992,238.471005 339.531177,238.789424 339.542302,239.098721 C339.549582,239.298075 339.54866,239.453745 339.549593,239.62006 C339.383726,239.620993 339.230804,239.620806 339.0319,239.62006 C338.722812,239.62006 338.400423,239.596318 338.109534,239.598185 C337.964088,239.600052 337.830179,239.599439 337.68663,239.623705 C337.543087,239.642371 337.41299,239.625281 337.121544,239.791409 C337.120328,239.791406 337.119113,239.791406 337.117898,239.791409 C336.91771,239.908565 336.840789,239.997675 336.778845,240.083066 C336.531206,240.236487 336.369397,240.49673 336.341359,240.78669 C336.234859,240.978753 336.128506,241.173295 336.024181,241.370006 C335.931037,241.545467 335.854697,241.67816 335.772626,241.822076 C335.628208,241.739945 335.490967,241.66776 335.320557,241.56323 C335.056695,241.402701 334.787049,241.231707 334.533081,241.089284 C334.406096,241.018353 334.286622,240.951028 334.153927,240.892417 C334.021229,240.834552 333.915986,240.755658 333.577902,240.757525 C333.24002,240.759391 333.133894,240.841843 333.00188,240.899708 C332.869853,240.959439 332.748895,241.02434 332.622723,241.096577 C332.370378,241.242173 332.100948,241.417382 331.838895,241.581457 C331.669649,241.687854 331.534001,241.760325 331.39047,241.843949 C331.30679,241.70022 331.230406,241.57024 331.135271,241.395526 C330.987342,241.123934 330.835645,240.843779 330.686846,240.593468 C330.612443,240.468404 330.539539,240.348831 330.45352,240.232541 C330.367507,240.116811 330.317205,239.9953 330.023324,239.827866 C329.729544,239.659871 329.602462,239.678742 329.458238,239.663809 C329.314006,239.645143 329.173706,239.64558 329.028043,239.64558 C328.736721,239.645207 328.4148,239.661855 328.105677,239.667455 L327.59163,239.667455 C327.59075,239.501327 327.586745,239.351455 327.59163,239.153408 C327.599283,238.84411 327.606299,238.525691 327.602566,238.234687 C327.600699,238.089091 327.60069,237.948407 327.584339,237.804491 C327.568099,237.660762 327.58362,237.527509 327.412989,237.235758 C327.242381,236.944007 327.118412,236.897413 327.001023,236.812855 C326.883632,236.728858 326.7697,236.656906 326.643743,236.583175 C326.391831,236.437579 326.103985,236.290537 325.830747,236.145688 C325.654801,236.052358 325.522878,235.972805 325.378677,235.890487 C325.460938,235.746758 325.537152,235.612486 325.641169,235.442064 C325.802388,235.178126 325.969158,234.904802 326.111467,234.650943 C326.182622,234.524014 326.246867,234.404504 326.30469,234.271788 C326.362518,234.139259 326.441505,234.033807 326.439581,233.695764 C326.437716,233.358095 326.360366,233.255541 326.301045,233.123385 C326.241724,232.990856 326.173121,232.870413 326.10053,232.74423 C325.955345,232.492051 325.783503,232.222287 325.619294,231.960402 C325.513756,231.792407 325.436883,231.658605 325.353157,231.515623 C325.496419,231.431625 325.62671,231.351787 325.801581,231.256776 C326.073154,231.109314 326.360698,230.957309 326.61093,230.808353 C326.736049,230.733689 326.848154,230.662011 326.964565,230.575027 C327.080968,230.489163 327.205609,230.434991 327.372885,230.141186 C327.540173,229.847755 327.522309,229.719829 327.536943,229.5761 C327.551503,229.432371 327.551154,229.294959 327.551527,229.14955 C327.551964,228.858359 327.540777,228.53994 327.529652,228.23083 C327.522373,228.031476 327.523295,227.875806 327.522362,227.709491 C327.688228,227.708558 327.841141,227.708558 328.040052,227.709491 C328.349152,227.709491 328.671532,227.729585 328.96242,227.727719 C329.107867,227.727719 329.241779,227.730112 329.385325,227.705846 C329.528865,227.68718 329.66264,227.702492 329.954056,227.534497 C330.244333,227.364635 330.292405,227.247045 330.376961,227.129822 C330.461518,227.012225 330.533704,226.891058 330.60664,226.765249 C330.752534,226.513443 330.902945,226.228985 331.047772,225.9559 C331.140917,225.780439 331.217258,225.647932 331.299327,225.50383 L331.299327,225.511121 C331.443859,225.593252 331.580935,225.66525 331.751397,225.769967 C332.015341,225.930495 332.284884,226.101863 332.538873,226.243912 C332.665877,226.314843 332.785355,226.376557 332.918028,226.433489 C333.050707,226.491354 333.156372,226.573893 333.49405,226.572027 C333.831931,226.572027 333.938057,226.487708 334.070075,226.429843 C334.2021,226.370112 334.323058,226.305398 334.44923,226.232974 C334.701575,226.087378 334.971008,225.912167 335.23306,225.748092 C335.402305,225.641696 335.537954,225.569225 335.681483,225.485602 Z M333.51228,229.324545 C333.006311,229.324545 332.825095,229.580427 332.702929,229.714636 C332.58076,229.849032 332.50984,229.967323 332.436792,230.090146 C332.290711,230.335791 332.164825,230.599848 332.043055,230.863039 C331.921277,231.126231 331.804579,231.383922 331.714939,231.566663 C331.709526,231.585329 331.709229,231.586584 331.704002,231.592184 C331.692989,231.593863 331.690092,231.592184 331.678482,231.592184 C331.479475,231.623916 331.200925,231.658711 330.916527,231.697908 C330.632132,231.737107 330.345886,231.77832 330.070719,231.847384 C329.933132,231.880983 329.799828,231.918461 329.636879,231.996859 C329.473924,232.075256 329.185073,232.175161 329.031688,232.664026 C328.878309,233.152144 329.056322,233.405297 329.144706,233.564517 C329.233109,233.723181 329.317995,233.831763 329.410843,233.940027 C329.596534,234.15674 329.810085,234.357548 330.019679,234.556153 C330.229273,234.75476 330.437148,234.945448 330.581119,235.08843 C330.589521,235.08843 330.587677,235.106657 330.595703,235.106657 C330.594042,235.125323 330.597456,235.124711 330.595703,235.132178 C330.564587,235.333771 330.507975,235.611629 330.457165,235.897778 C330.406375,236.183743 330.357838,236.475664 330.336857,236.761815 C330.326404,236.905544 330.321002,237.043761 330.344148,237.224822 C330.367219,237.405883 330.370508,237.717472 330.781634,238.015943 C330.78285,238.015945 330.784066,238.015945 330.785282,238.015943 C331.196475,238.314413 331.487121,238.220232 331.6639,238.183646 C331.840687,238.148181 331.967323,238.093816 332.097739,238.037817 C332.358585,237.925821 332.615684,237.788093 332.866987,237.647724 C333.118293,237.507729 333.359194,237.36302 333.5378,237.268571 C333.548066,237.268571 333.553409,237.269008 333.56332,237.250342 C333.5734,237.250342 333.574703,237.249905 333.585195,237.268571 C333.764966,237.3619 334.010291,237.499405 334.263299,237.636788 C334.516301,237.77305 334.773995,237.910952 335.03619,238.019588 C335.167301,238.07372 335.296461,238.124527 335.473677,238.158126 C335.650893,238.191725 335.941171,238.283743 336.34865,237.979486 C336.756129,237.675975 336.757979,237.365967 336.778845,237.184719 C336.799714,237.003658 336.791023,236.864695 336.778845,236.721713 C336.754374,236.435935 336.701879,236.146726 336.647598,235.861322 C336.593317,235.575917 336.538997,235.296941 336.505417,235.095721 C336.50355,235.077055 336.503451,235.077667 336.501772,235.0702 C336.509611,235.0702 336.507954,235.051973 336.516353,235.051973 C336.65857,234.908244 336.863347,234.713626 337.070503,234.512405 C337.277661,234.311185 337.485364,234.107755 337.668402,233.888988 C337.75992,233.778858 337.848101,233.669988 337.934539,233.509833 C338.020982,233.349305 338.195958,233.095591 338.036619,232.60934 C337.877285,232.123088 337.588024,232.025621 337.424138,231.949464 C337.260249,231.872933 337.124642,231.837234 336.986651,231.803635 C336.710682,231.738304 336.425692,231.700563 336.140844,231.665097 C335.85599,231.629631 335.574621,231.600174 335.375243,231.570309 C335.363484,231.568629 335.361035,231.570309 335.349723,231.570309 C335.344683,231.551643 335.344013,231.552167 335.338786,231.548434 C335.246912,231.367373 335.128349,231.110154 335.003379,230.848456 C334.87841,230.586944 334.751409,230.323175 334.602349,230.079209 C334.527816,229.95788 334.452681,229.840061 334.328921,229.707345 C334.205165,229.574816 334.018179,229.325204 333.51228,229.32819 L333.51228,229.324545 Z M311.977008,230.866685 C311.461558,230.89286 311.064923,231.331934 311.091098,231.847384 C311.117273,232.362834 311.556347,232.759469 312.071797,232.733294 L321.404842,232.733294 C321.741425,232.738054 322.054498,232.561216 322.224178,232.270494 C322.393859,231.979771 322.393859,231.620207 322.224178,231.329485 C322.054498,231.038763 321.741425,230.861925 321.404842,230.866685 L312.071797,230.866685 C312.040221,230.86508 312.008584,230.86508 311.977008,230.866685 L311.977008,230.866685 Z M333.530509,232.073418 C333.583278,232.183548 333.634729,232.297751 333.687274,232.401534 C333.746259,232.517264 333.804383,232.626063 333.873205,232.736939 C333.942027,232.848936 333.973117,232.955799 334.234133,233.14526 C334.495118,233.334721 334.604069,233.329371 334.729951,233.360359 C334.855835,233.390224 334.977456,233.410961 335.10546,233.429627 C335.219323,233.448293 335.342172,233.462087 335.46274,233.477022 C335.374842,233.562886 335.285196,233.646631 335.203894,233.728575 C335.11258,233.821906 335.028017,233.911398 334.945048,234.012942 C334.862077,234.113739 334.768974,234.173569 334.671619,234.48324 C334.574257,234.793097 334.613883,234.899622 334.624224,235.030098 C334.634491,235.160761 334.653705,235.283729 334.675265,235.412899 C334.694472,235.528628 334.721312,235.649223 334.744533,235.770179 C334.637352,235.712314 334.526569,235.651095 334.423709,235.59883 C334.308297,235.539098 334.197447,235.486951 334.077366,235.438419 C333.957287,235.389887 333.873498,235.319889 333.552382,235.321756 C333.231101,235.321756 333.143253,235.395312 333.023753,235.44571 C332.904252,235.496108 332.795748,235.550037 332.681054,235.609768 C332.579138,235.6639 332.470021,235.725031 332.363878,235.784763 C332.38555,235.663433 332.408104,235.542464 332.425855,235.427481 C332.445828,235.298685 332.464494,235.175343 332.473249,235.04468 C332.482022,234.914018 332.519714,234.810206 332.418564,234.501469 C332.31745,234.192919 332.22568,234.130662 332.141489,234.031169 C332.057305,233.932239 331.971441,233.842101 331.878997,233.75045 C331.796754,233.668319 331.705384,233.583452 331.616505,233.498895 C331.737069,233.480229 331.859976,233.470168 331.973785,233.451501 C332.101555,233.430969 332.220166,233.406673 332.345649,233.374941 C332.471141,233.343208 332.582813,233.348084 332.841467,233.156196 C333.100114,232.963562 333.127654,232.85604 333.195102,232.74423 C333.262561,232.632234 333.31984,232.518757 333.377387,232.401534 C333.428626,232.297004 333.479103,232.185041 333.530509,232.073418 Z M300.872144,240.19973 L306.47197,240.19973 L306.47197,242.999643 L306.47197,243.003288 C306.47197,244.557938 305.257878,245.780022 303.708514,245.799556 L303.672057,245.799556 C303.659906,245.799319 303.647751,245.799319 303.6356,245.799556 C302.086235,245.780022 300.872144,244.557938 300.872144,243.003288 L300.872144,240.19973 Z M311.977008,240.19973 C311.461558,240.225905 311.064923,240.664979 311.091098,241.180428 C311.117273,241.695878 311.556347,242.092514 312.071797,242.066338 L323.271451,242.066338 C323.608034,242.071099 323.921107,241.89426 324.090787,241.603538 C324.260468,241.312816 324.260468,240.953252 324.090787,240.66253 C323.921107,240.371808 323.608034,240.194969 323.271451,240.19973 L312.071797,240.19973 C312.040221,240.198124 312.008584,240.198124 311.977008,240.19973 Z M334.471104,243.218387 C334.703363,243.359887 334.942162,243.5025 335.171083,243.619415 C335.305945,243.68848 335.433142,243.749435 335.59034,243.801702 C335.747546,243.853967 335.918943,243.959313 336.330422,243.84545 C336.333975,243.844472 336.334208,243.842792 336.337713,243.841805 L336.337713,251.009292 L334.161218,249.645792 C333.86743,249.457919 333.493416,249.449482 333.191456,249.623917 L330.734241,251.063976 L330.734241,243.816284 C330.782956,243.834928 330.800076,243.858589 330.861841,243.874616 C331.274188,243.982879 331.441975,243.875753 331.598276,243.827221 C331.754567,243.773089 331.883551,243.708575 332.017535,243.637644 C332.210986,243.536577 332.407546,243.409834 332.604496,243.287655 L332.604496,246.732861 C332.599733,247.069446 332.77657,247.382522 333.067294,247.552204 C333.358017,247.721886 333.717583,247.721886 334.008306,247.552204 C334.29903,247.382522 334.475867,247.069446 334.471104,246.732861 L334.471104,243.218387 Z" id="Shape"></path>
            </g>
        </g>
    </g>
</svg>