<svg id="Layer_1" data-name="Layer 1" xmlns="http://www.w3.org/2000/svg" viewBox="0 0 461.86 94.55"><defs><style>.cls-1{fill:#494848;fill-rule:evenodd;}</style></defs><title>available_app_store</title><path class="cls-1" d="M252.21,85.31a24.34,24.34,0,0,1-4.83-6.61l7-3A14.8,14.8,0,0,0,256.55,79a9.59,9.59,0,0,0,7.13,3.29,9.43,9.43,0,0,0,7.42-3.49,12.35,12.35,0,0,0,2-7.31V68.77c-5,6.44-16,5.54-22.09-1.12a19.32,19.32,0,0,1,.13-25.8c6.54-6.48,16.23-7.29,21.94-1.16h0V37.6h7.6v33c0,8.41-3.09,13.16-6.92,15.93a18,18,0,0,1-10.2,3,16.82,16.82,0,0,1-11.37-4.21ZM434.4,87.13h0l7.34-17.39-13-30.14h7.4l9.26,21.47,9.06-21.47h7.4L441.8,87.13Zm-35.13-16.6h0A11.69,11.69,0,0,1,396,62.46a10.17,10.17,0,0,1,2.69-7.09c3-3.19,7.46-4.55,12.16-4.55a15.85,15.85,0,0,1,7.85,1.8c0-5.31-4.15-7.35-7.67-7.35A7.43,7.43,0,0,0,403.83,50l-6.64-2.69c1.18-3.21,4.9-8.7,13.7-8.7A15.57,15.57,0,0,1,422.2,43c2.77,2.95,3.7,6.62,3.7,11.5V72.78h-7.25V69.51a12.34,12.34,0,0,1-4,3.15,14,14,0,0,1-6.07,1.23,13.73,13.73,0,0,1-9.33-3.36ZM167.35,54.83h0c0-8.7,6.62-18.29,18.11-18.29s18.11,9.58,18.11,18.28S197,73.12,185.46,73.12s-18.11-9.58-18.11-18.28Zm39.31,0h0c0-8.7,6.62-18.29,18.11-18.29s18.11,9.58,18.11,18.28-6.62,18.29-18.11,18.29-18.11-9.58-18.11-18.28ZM118.3,64.44h0A28.29,28.29,0,0,1,157.87,24l-5.43,5.66a19.77,19.77,0,0,0-28,.38,21,21,0,0,0-.19,29.07c7.83,8.06,20.82,8.53,28.65.47,2.65-2.72,3.55-6.2,4.09-9.76H138.58V42.08h25.81a31.75,31.75,0,0,1,.43,5.91,26.13,26.13,0,0,1-7,17.54,25.85,25.85,0,0,1-18.9,7.53,29.5,29.5,0,0,1-20.58-8.62ZM302.14,67.7h0a19.77,19.77,0,0,1,0-25.91,15.9,15.9,0,0,1,23.72,0,27.67,27.67,0,0,1,4.65,8.4L306.37,60.32A9.42,9.42,0,0,0,315,65.89c3.76,0,6.32-1.26,9-5.09l6.32,4.25h0c-.73,1-1.62,1.91-2.3,2.65-6.45,7.12-19.4,7.12-25.85,0Zm45.35,5.11h0V24.68H363c9.33,0,16.38,6.53,16.38,14.58a14.77,14.77,0,0,1-14.95,14.58h-9.58v19Zm36.67,0h0V24.67h7.34V72.81ZM285.87,72h0V18.16h8V72Zm132.8-13.33h0a13,13,0,0,0-6.92-1.76c-5.22,0-8.17,2.64-8.17,5.53,0,3.22,3.08,4.82,6,4.82,4.19,0,9.12-3.49,9.12-8.58Zm-223.1-3.86h0c0-5.25-3.69-11-10.11-11s-10.11,5.78-10.11,11,3.69,11,10.11,11,10.11-5.79,10.11-11Zm39.3,0h0c0-5.25-3.69-11-10.11-11s-10.11,5.78-10.11,11,3.69,11,10.11,11,10.11-5.79,10.11-11Zm38.41,3.32h0a10.1,10.1,0,0,0,.29-1.3.48.48,0,0,0,0-.17,11.58,11.58,0,0,0,0-3.76,1,1,0,0,0,0-.23,9.7,9.7,0,0,0-.41-1.62c-1.37-4.26-5-7.28-9.28-7.25-5.42,0-9.78,5-9.74,11.08s4.47,11,9.88,10.92c4.27,0,7.88-3.12,9.28-7.67Zm31.85-4h0l16.11-6.83a7.43,7.43,0,0,0-6.67-3.77c-6.13,0-10.33,7-9.44,10.61Zm66.74-14.76h0c0-4.2-3.3-7.62-8.21-7.62h-8.82V47h9.24A7.69,7.69,0,0,0,371.87,39.42Z"/><path class="cls-1" d="M0,47.27V4.52A4.59,4.59,0,0,1,4.2,0,7.2,7.2,0,0,1,8.07,1.08l78.4,42.86c1.68.92,2.52,2.13,2.52,3.33s-.83,2.41-2.52,3.33L8.07,93.47A7.2,7.2,0,0,1,4.2,94.55,4.59,4.59,0,0,1,0,90Z"/><path class="cls-1" d="M50.93,47.55,3.46.08A3.3,3.3,0,0,1,4.2,0,7.2,7.2,0,0,1,8.07,1.08L65.83,32.66Z"/><path class="cls-1" d="M65.47,62.09,50.93,47.55l14.9-14.9L86.47,43.94c1.68.92,2.52,2.13,2.52,3.33s-.83,2.41-2.52,3.33Z"/><path class="cls-1" d="M3.95,94.54l0,0L50.93,47.55,65.47,62.09,8.07,93.47A7.2,7.2,0,0,1,4.2,94.55Z"/><path class="cls-1" d="M440,86.79h0v0h0a0,0,0,0,0,0,0v0s0,0,0,0Z"/><path class="cls-1" d="M440.08,86.79l0,0a0,0,0,0,0,0,0h0s0,0,0,0h0v.08h0v0h0l0,0Zm0-.06h0v0h0Z"/><polygon class="cls-1" points="440.14 86.78 440.11 86.78 440.11 86.76 440.13 86.76 440.13 86.74 440.11 86.74 440.11 86.72 440.13 86.72 440.14 86.71 440.09 86.71 440.09 86.79 440.14 86.79 440.14 86.78"/><path class="cls-1" d="M440.21,86.79l0-.08h0l0,.08h0v0h0v0Zm0,0h0v0h0Z"/><polygon class="cls-1" points="440.25 86.71 440.2 86.71 440.2 86.72 440.22 86.72 440.22 86.79 440.24 86.79 440.24 86.72 440.25 86.72 440.25 86.71"/><polygon class="cls-1" points="440.31 86.78 440.27 86.78 440.27 86.76 440.3 86.76 440.3 86.74 440.27 86.74 440.27 86.72 440.31 86.72 440.31 86.71 440.26 86.71 440.26 86.79 440.31 86.79 440.31 86.78"/><path class="cls-1" d="M440.38,86.77v0a0,0,0,0,0,0,0h0v.08h0a0,0,0,0,0,0,0Zm0,0h0v-.06h0Z"/><path class="cls-1" d="M440.47,86.77h0v0h0s0,0,0,0h0v.08h0a0,0,0,0,0,0,0Zm0,0h0v0h0Zm0,0h0v0h0Z"/><polygon class="cls-1" points="440.54 86.71 440.52 86.71 440.51 86.74 440.51 86.75 440.5 86.74 440.49 86.71 440.47 86.71 440.5 86.76 440.5 86.79 440.51 86.79 440.51 86.76 440.54 86.71"/><polygon class="cls-1" points="440.65 86.77 440.6 86.77 440.6 86.67 440.57 86.67 440.57 86.79 440.64 86.79 440.65 86.77"/><path class="cls-1" d="M440.74,86.76V86.7s0,0,0,0,0,0,0,0v.07s0,0,0,0,0,0,0,0Zm0,0h0a0,0,0,0,1,0,0l0,0V86.7h0Z"/><path class="cls-1" d="M440.83,86.8v-.07h0v0h0v0h0V86.7h0v0l0,0s0,0,0,0v.06s0,0,0,0h0Z"/><path class="cls-1" d="M440.93,86.76V86.7s0,0,0,0,0,0,0,0v.07s0,0,0,0,0,0,0,0Zm0,0h0l0,0,0,0V86.7h0Z"/><polygon class="cls-1" points="441.11 86.79 441.11 86.67 441.09 86.67 441.05 86.76 441 86.67 440.99 86.67 440.99 86.79 441.01 86.79 441.01 86.73 441 86.72 441.04 86.79 441.06 86.79 441.09 86.72 441.08 86.73 441.08 86.79 441.11 86.79"/><path class="cls-1" d="M441.22,86.79l0-.12h0l0,.12h0v0h0v0Zm0-.06h0v0h0Z"/><path class="cls-1" d="M441.3,86.77s0,0,0,0,0,0,0,0h0v0h0a0,0,0,0,0,0,0,0,0,0,0,0,0,0s0,0,0,0l0,0,0,0v0l0,0A0,0,0,0,0,441.3,86.77Z"/><polygon class="cls-1" points="441.38 86.67 441.3 86.67 441.3 86.69 441.33 86.69 441.33 86.79 441.35 86.79 441.35 86.69 441.38 86.69 441.38 86.67"/><polygon class="cls-1" points="441.47 86.77 441.42 86.77 441.42 86.74 441.46 86.74 441.46 86.72 441.42 86.72 441.42 86.69 441.46 86.69 441.47 86.67 441.39 86.67 441.39 86.79 441.47 86.79 441.47 86.77"/><path class="cls-1" d="M441.57,86.79l0-.05a0,0,0,0,0,0,0h0s0,0,0,0h0v.12h0v0h0l0,0Zm0-.08h0s0,0,0,0h0v0h0Z"/></svg>